<svg xmlns="http://www.w3.org/2000/svg" viewBox="0 0 64 64">
  <!-- Green shield background -->
  <path d="M32 4 L56 14 L56 34 C56 48 44 58 32 62 C20 58 8 48 8 34 L8 14 Z"
        fill="#16a34a"/>
  <!-- Open book (orange + teal) -->
  <ellipse cx="32" cy="40" rx="18" ry="5" fill="#f97316" opacity="0.9"/>
  <path d="M14 37 Q32 32 50 37 L50 46 Q32 41 14 46 Z" fill="#0d9488"/>
  <path d="M14 37 Q32 42 50 37 L50 46 Q32 51 14 46 Z" fill="#f97316"/>
  <!-- Graduation cap -->
  <rect x="24" y="25" width="16" height="8" rx="2" fill="#1f2937"/>
  <polygon points="32,18 44,25 32,30 20,25" fill="#111827"/>
  <!-- Tassel -->
  <line x1="44" y1="25" x2="44" y2="33" stroke="#f59e0b" stroke-width="1.5"/>
  <circle cx="44" cy="34" r="2" fill="#f59e0b"/>
  <!-- White checkmark -->
  <path d="M22 36 L28 42 L42 28" stroke="white" stroke-width="3"
        stroke-linecap="round" stroke-linejoin="round" fill="none" opacity="0.9"/>
</svg>
